<svg xmlns="http://www.w3.org/2000/svg" width="1200" height="675" viewBox="0 0 1200 675">
<defs>
  <linearGradient id="g" x1="0" y1="0" x2="1" y2="1">
    <stop offset="0%" stop-color="#1e3a8a"/>
    <stop offset="100%" stop-color="#60a5fa"/>
  </linearGradient>
</defs>
<rect width="1200" height="675" rx="28" fill="url(#g)"/>

<path d="M0 430 L250 260 L390 330 L560 170 L760 360 L980 210 L1200 430 V675 H0 Z" fill="rgba(255,255,255,0.12)"/>
<path d="M130 420 L320 250 L430 320 L570 140 L780 360 L990 225 L1140 420" fill="none" stroke="white" stroke-opacity="0.38" stroke-width="18" stroke-linecap="round" stroke-linejoin="round"/>
<path d="M0 510 Q250 480 450 520 T1200 505 V675 H0 Z" fill="rgba(255,255,255,0.10)"/>
<circle cx="1020" cy="115" r="55" fill="rgba(255,255,255,0.28)"/>

<rect y="470" width="1200" height="205" fill="rgba(0,0,0,0.18)"/>
<path d="M120 510 l40-110 40 110zM190 510 l34-92 34 92zM260 510 l42-120 42 120zM910 510 l38-105 38 105zM980 510 l36-92 36 92zM1050 510 l40-112 40 112z" fill="rgba(255,255,255,0.18)"/>

<rect x="64" y="64" width="210" height="46" rx="23" fill="rgba(255,255,255,0.18)"/>
<text x="92" y="95" fill="white" font-family="Arial, Helvetica, sans-serif" font-size="24" font-weight="700">PrimeroChile</text>
<text x="90" y="508" fill="#ffffff" font-family="Arial, Helvetica, sans-serif" font-size="68" font-weight="700">Hotel & Spa</text>
<text x="90" y="558" fill="rgba(255,255,255,0.92)" font-family="Arial, Helvetica, sans-serif" font-size="30">Alojamiento verificado</text>
</svg>