<?xml version="1.0" standalone="no"?>
<!DOCTYPE svg PUBLIC "-//W3C//DTD SVG 20010904//EN"
 "http://www.w3.org/TR/2001/REC-SVG-20010904/DTD/svg10.dtd">
<svg version="1.0" xmlns="http://www.w3.org/2000/svg"
 width="1081.000000pt" height="1081.000000pt" viewBox="0 0 1081.000000 1081.000000"
 preserveAspectRatio="xMidYMid meet">

<g transform="translate(0.000000,1081.000000) scale(0.100000,-0.100000)"
fill="#000000" stroke="none">
<path d="M5397 10240 c-4 -8 -36 -139 -73 -290 -36 -151 -69 -278 -72 -281 -4
-4 -56 -12 -117 -18 -791 -85 -1490 -535 -1897 -1223 -176 -298 -292 -650
-330 -1003 l-13 -120 -300 -74 -300 -75 301 -73 300 -74 12 -122 c56 -555 316
-1101 717 -1502 427 -426 940 -665 1570 -730 l60 -6 69 -287 c38 -158 72 -290
76 -295 3 -4 37 121 75 278 38 157 72 290 75 295 3 5 51 14 105 20 1193 126
2127 1063 2243 2248 5 51 12 95 14 98 3 2 135 36 294 75 159 38 294 71 299 73
6 1 -125 36 -290 76 -165 40 -302 74 -304 76 -2 2 -8 45 -13 96 -55 561 -294
1081 -682 1485 -142 148 -267 252 -436 365 -330 219 -722 360 -1111 399 -116
12 -120 13 -126 38 -4 14 -37 148 -73 296 -37 149 -70 263 -73 255z m402 -700
c350 -62 654 -183 941 -374 811 -541 1220 -1515 1034 -2467 -178 -917 -871
-1651 -1778 -1884 -222 -57 -331 -70 -596 -70 -249 0 -343 10 -555 60 -592
139 -1130 518 -1467 1035 -283 433 -422 956 -388 1459 24 347 93 606 245 916
160 328 370 593 646 817 348 282 800 474 1244 527 44 5 186 8 315 7 189 -3
259 -8 359 -26z"/>
<path d="M7525 7179 c-55 -39 -122 -82 -150 -96 -27 -14 -99 -55 -160 -92 -60
-36 -161 -93 -224 -126 -175 -92 -225 -146 -238 -255 -9 -76 28 -141 137 -242
49 -45 95 -96 102 -112 49 -117 -38 -407 -168 -556 -31 -36 -92 -119 -137
-185 -44 -66 -101 -145 -125 -175 -41 -50 -86 -130 -78 -138 2 -2 36 16 75 40
286 171 593 479 761 765 149 252 251 536 294 823 19 125 33 420 20 420 -5 -1
-54 -33 -109 -71z"/>
<path d="M3790 7033 c-14 -2 -81 -12 -150 -23 -69 -11 -199 -27 -290 -36 -91
-9 -167 -18 -170 -20 -8 -9 30 -239 59 -356 153 -602 567 -1127 1114 -1414
l100 -52 91 58 c134 84 247 143 376 195 174 71 254 116 379 214 63 49 162 117
220 150 58 33 155 91 214 130 89 58 122 73 185 87 95 21 136 41 183 91 78 82
112 191 108 350 -3 119 3 134 111 253 80 88 143 170 136 177 -2 2 -56 -3 -121
-12 -157 -22 -911 -27 -1090 -7 -197 22 -296 45 -365 87 -53 32 -66 36 -103
31 -99 -15 -218 -17 -341 -6 -249 22 -474 58 -526 84 -29 15 -84 24 -120 19z"/>
<path d="M2960 1979 c-314 -29 -550 -216 -641 -509 -31 -98 -33 -298 -5 -400
68 -246 262 -433 521 -501 113 -30 326 -30 440 0 103 27 204 77 281 140 109
88 110 79 -27 204 -64 59 -121 107 -125 107 -4 0 -29 -21 -56 -46 -192 -179
-514 -128 -621 98 -36 76 -51 177 -38 258 22 135 97 242 209 297 52 26 66 28
172 28 106 0 120 -2 173 -28 31 -16 81 -50 109 -76 l52 -48 122 110 123 111
-20 25 c-36 47 -132 120 -204 155 -124 62 -301 90 -465 75z"/>
<path d="M3850 1265 l0 -695 195 0 195 0 0 270 0 270 270 0 270 0 0 -270 0
-270 195 0 195 0 0 695 0 695 -195 0 -195 0 0 -265 0 -265 -270 0 -270 0 0
265 0 265 -195 0 -195 0 0 -695z"/>
<path d="M5470 1265 l0 -695 195 0 195 0 0 695 0 695 -195 0 -195 0 0 -695z"/>
<path d="M6170 1265 l0 -695 525 0 525 0 0 155 0 155 -330 0 -330 0 0 540 0
540 -195 0 -195 0 0 -695z"/>
<path d="M7400 1265 l0 -695 560 0 560 0 0 150 0 150 -365 0 -365 0 0 130 0
130 310 0 310 0 0 145 0 145 -310 0 -310 0 0 120 0 120 350 0 350 0 0 150 0
150 -545 0 -545 0 0 -695z"/>
</g>
</svg>
